<?xml version="1.0" encoding="UTF-8" standalone="no"?>
<!DOCTYPE svg PUBLIC "-//W3C//DTD SVG 1.1//EN"
 "http://www.w3.org/Graphics/SVG/1.1/DTD/svg11.dtd">
<!-- Generated by graphviz version 7.1.0 (20230121.1956)
 -->
<!-- Title: G Pages: 1 -->
<svg width="1984pt" height="403pt"
 viewBox="0.00 0.00 1984.28 402.96" xmlns="http://www.w3.org/2000/svg" xmlns:xlink="http://www.w3.org/1999/xlink">
<g id="graph0" class="graph" transform="scale(1 1) rotate(0) translate(4 398.96)">
<title>G</title>
<polygon fill="white" stroke="none" points="-4,4 -4,-398.96 1980.28,-398.96 1980.28,4 -4,4"/>
<!-- n1 -->
<g id="node1" class="node">
<title>n1</title>
<ellipse fill="none" stroke="black" cx="882.9" cy="-376.96" rx="65.79" ry="18"/>
<text text-anchor="middle" x="882.9" y="-373.26" font-family="Times,serif" font-size="14.00">chatgpt&#45;230308</text>
</g>
<!-- n2 -->
<g id="node9" class="node">
<title>n2</title>
<ellipse fill="none" stroke="black" cx="882.9" cy="-296.09" rx="109.7" ry="26.74"/>
<text text-anchor="middle" x="882.9" y="-299.89" font-family="Times,serif" font-size="14.00">github.com/gin&#45;gonic/gin</text>
<text text-anchor="middle" x="882.9" y="-284.89" font-family="Times,serif" font-size="14.00">v1.9.0</text>
</g>
<!-- n1&#45;&gt;n2 -->
<g id="edge1" class="edge">
<title>n1&#45;&gt;n2</title>
<path fill="none" stroke="black" d="M882.9,-358.85C882.9,-351.68 882.9,-343.05 882.9,-334.55"/>
<polygon fill="black" stroke="black" points="886.4,-334.69 882.9,-324.69 879.4,-334.69 886.4,-334.69"/>
</g>
<!-- n10 -->
<g id="node2" class="node">
<title>n10</title>
<ellipse fill="none" stroke="black" cx="79.9" cy="-206.35" rx="79.81" ry="26.74"/>
<text text-anchor="middle" x="79.9" y="-210.15" font-family="Times,serif" font-size="14.00">gopkg.in/yaml.v3</text>
<text text-anchor="middle" x="79.9" y="-195.15" font-family="Times,serif" font-size="14.00">v3.0.1</text>
</g>
<!-- n11 -->
<g id="node3" class="node">
<title>n11</title>
<ellipse fill="none" stroke="black" cx="1013.9" cy="-26.87" rx="143.59" ry="26.74"/>
<text text-anchor="middle" x="1013.9" y="-30.67" font-family="Times,serif" font-size="14.00">github.com/go&#45;playground/locales</text>
<text text-anchor="middle" x="1013.9" y="-15.67" font-family="Times,serif" font-size="14.00">v0.14.1</text>
</g>
<!-- n12 -->
<g id="node4" class="node">
<title>n12</title>
<ellipse fill="none" stroke="black" cx="1013.9" cy="-116.61" rx="191.75" ry="26.74"/>
<text text-anchor="middle" x="1013.9" y="-120.41" font-family="Times,serif" font-size="14.00">github.com/go&#45;playground/universal&#45;translator</text>
<text text-anchor="middle" x="1013.9" y="-105.41" font-family="Times,serif" font-size="14.00">v0.18.1</text>
</g>
<!-- n12&#45;&gt;n11 -->
<g id="edge2" class="edge">
<title>n12&#45;&gt;n11</title>
<path fill="none" stroke="black" d="M1013.9,-89.76C1013.9,-82.06 1013.9,-73.47 1013.9,-65.2"/>
<polygon fill="black" stroke="black" points="1017.4,-65.35 1013.9,-55.35 1010.4,-65.35 1017.4,-65.35"/>
</g>
<!-- n13 -->
<g id="node5" class="node">
<title>n13</title>
<ellipse fill="none" stroke="black" cx="1338.9" cy="-116.61" rx="115.02" ry="26.74"/>
<text text-anchor="middle" x="1338.9" y="-120.41" font-family="Times,serif" font-size="14.00">github.com/leodido/go&#45;urn</text>
<text text-anchor="middle" x="1338.9" y="-105.41" font-family="Times,serif" font-size="14.00">v1.2.1</text>
</g>
<!-- n14 -->
<g id="node6" class="node">
<title>n14</title>
<ellipse fill="none" stroke="black" cx="1559.9" cy="-116.61" rx="87.86" ry="26.74"/>
<text text-anchor="middle" x="1559.9" y="-120.41" font-family="Times,serif" font-size="14.00">golang.org/x/crypto</text>
<text text-anchor="middle" x="1559.9" y="-105.41" font-family="Times,serif" font-size="14.00">v0.5.0</text>
</g>
<!-- n15 -->
<g id="node7" class="node">
<title>n15</title>
<ellipse fill="none" stroke="black" cx="726.9" cy="-116.61" rx="77.56" ry="26.74"/>
<text text-anchor="middle" x="726.9" y="-120.41" font-family="Times,serif" font-size="14.00">golang.org/x/text</text>
<text text-anchor="middle" x="726.9" y="-105.41" font-family="Times,serif" font-size="14.00">v0.7.0</text>
</g>
<!-- n16 -->
<g id="node8" class="node">
<title>n16</title>
<ellipse fill="none" stroke="black" cx="542.9" cy="-116.61" rx="75.82" ry="26.74"/>
<text text-anchor="middle" x="542.9" y="-120.41" font-family="Times,serif" font-size="14.00">golang.org/x/sys</text>
<text text-anchor="middle" x="542.9" y="-105.41" font-family="Times,serif" font-size="14.00">v0.5.0</text>
</g>
<!-- n2&#45;&gt;n10 -->
<g id="edge10" class="edge">
<title>n2&#45;&gt;n10</title>
<path fill="none" stroke="black" d="M774.05,-292.29C633.27,-287.17 380.95,-272.83 168.9,-233.22 161.87,-231.91 154.59,-230.27 147.36,-228.46"/>
<polygon fill="black" stroke="black" points="148.5,-225.14 137.94,-225.98 146.72,-231.91 148.5,-225.14"/>
</g>
<!-- n3 -->
<g id="node10" class="node">
<title>n3</title>
<ellipse fill="none" stroke="black" cx="292.9" cy="-206.35" rx="115.02" ry="26.74"/>
<text text-anchor="middle" x="292.9" y="-210.15" font-family="Times,serif" font-size="14.00">github.com/gin&#45;contrib/sse</text>
<text text-anchor="middle" x="292.9" y="-195.15" font-family="Times,serif" font-size="14.00">v0.1.0</text>
</g>
<!-- n2&#45;&gt;n3 -->
<g id="edge3" class="edge">
<title>n2&#45;&gt;n3</title>
<path fill="none" stroke="black" d="M784.4,-284.15C689.87,-273.14 543.21,-254.75 416.9,-233.22 406.95,-231.52 396.58,-229.6 386.27,-227.6"/>
<polygon fill="black" stroke="black" points="387.09,-224.19 376.6,-225.68 385.73,-231.06 387.09,-224.19"/>
</g>
<!-- n4 -->
<g id="node11" class="node">
<title>n4</title>
<ellipse fill="none" stroke="black" cx="542.9" cy="-206.35" rx="116.85" ry="26.74"/>
<text text-anchor="middle" x="542.9" y="-210.15" font-family="Times,serif" font-size="14.00">github.com/mattn/go&#45;isatty</text>
<text text-anchor="middle" x="542.9" y="-195.15" font-family="Times,serif" font-size="14.00">v0.0.17</text>
</g>
<!-- n2&#45;&gt;n4 -->
<g id="edge4" class="edge">
<title>n2&#45;&gt;n4</title>
<path fill="none" stroke="black" d="M809.13,-276.05C756.49,-262.47 685.49,-244.15 630.05,-229.84"/>
<polygon fill="black" stroke="black" points="631.21,-226.52 620.65,-227.41 629.46,-233.3 631.21,-226.52"/>
</g>
<!-- n5 -->
<g id="node12" class="node">
<title>n5</title>
<ellipse fill="none" stroke="black" cx="752.9" cy="-206.35" rx="74.91" ry="26.74"/>
<text text-anchor="middle" x="752.9" y="-210.15" font-family="Times,serif" font-size="14.00">golang.org/x/net</text>
<text text-anchor="middle" x="752.9" y="-195.15" font-family="Times,serif" font-size="14.00">v0.7.0</text>
</g>
<!-- n2&#45;&gt;n5 -->
<g id="edge5" class="edge">
<title>n2&#45;&gt;n5</title>
<path fill="none" stroke="black" d="M846.34,-270.42C830.78,-259.91 812.5,-247.57 796.25,-236.61"/>
<polygon fill="black" stroke="black" points="798.46,-233.87 788.21,-231.18 794.54,-239.68 798.46,-233.87"/>
</g>
<!-- n6 -->
<g id="node13" class="node">
<title>n6</title>
<ellipse fill="none" stroke="black" cx="1013.9" cy="-206.35" rx="168.08" ry="26.74"/>
<text text-anchor="middle" x="1013.9" y="-210.15" font-family="Times,serif" font-size="14.00">github.com/go&#45;playground/validator/v10</text>
<text text-anchor="middle" x="1013.9" y="-195.15" font-family="Times,serif" font-size="14.00">v10.11.2</text>
</g>
<!-- n2&#45;&gt;n6 -->
<g id="edge6" class="edge">
<title>n2&#45;&gt;n6</title>
<path fill="none" stroke="black" d="M919.39,-270.65C934.06,-260.82 951.17,-249.37 966.76,-238.92"/>
<polygon fill="black" stroke="black" points="968.62,-241.89 974.98,-233.42 964.73,-236.07 968.62,-241.89"/>
</g>
<!-- n7 -->
<g id="node14" class="node">
<title>n7</title>
<ellipse fill="none" stroke="black" cx="1334.9" cy="-206.35" rx="135.11" ry="26.74"/>
<text text-anchor="middle" x="1334.9" y="-210.15" font-family="Times,serif" font-size="14.00">github.com/pelletier/go&#45;toml/v2</text>
<text text-anchor="middle" x="1334.9" y="-195.15" font-family="Times,serif" font-size="14.00">v2.0.6</text>
</g>
<!-- n2&#45;&gt;n7 -->
<g id="edge7" class="edge">
<title>n2&#45;&gt;n7</title>
<path fill="none" stroke="black" d="M967.39,-278.69C1041.46,-264.31 1149.45,-243.35 1229.22,-227.86"/>
<polygon fill="black" stroke="black" points="1229.65,-231.35 1238.8,-226.01 1228.31,-224.48 1229.65,-231.35"/>
</g>
<!-- n8 -->
<g id="node15" class="node">
<title>n8</title>
<ellipse fill="none" stroke="black" cx="1605.9" cy="-206.35" rx="118.17" ry="26.74"/>
<text text-anchor="middle" x="1605.9" y="-210.15" font-family="Times,serif" font-size="14.00">github.com/ugorji/go/codec</text>
<text text-anchor="middle" x="1605.9" y="-195.15" font-family="Times,serif" font-size="14.00">v1.2.9</text>
</g>
<!-- n2&#45;&gt;n8 -->
<g id="edge8" class="edge">
<title>n2&#45;&gt;n8</title>
<path fill="none" stroke="black" d="M987.19,-287.36C1106.48,-277.81 1307.44,-259.52 1478.9,-233.22 1489.3,-231.63 1500.14,-229.75 1510.91,-227.75"/>
<polygon fill="black" stroke="black" points="1511.43,-231.21 1520.6,-225.91 1510.12,-224.34 1511.43,-231.21"/>
</g>
<!-- n9 -->
<g id="node16" class="node">
<title>n9</title>
<ellipse fill="none" stroke="black" cx="1858.9" cy="-206.35" rx="117.26" ry="26.74"/>
<text text-anchor="middle" x="1858.9" y="-210.15" font-family="Times,serif" font-size="14.00">google.golang.org/protobuf</text>
<text text-anchor="middle" x="1858.9" y="-195.15" font-family="Times,serif" font-size="14.00">v1.28.1</text>
</g>
<!-- n2&#45;&gt;n9 -->
<g id="edge9" class="edge">
<title>n2&#45;&gt;n9</title>
<path fill="none" stroke="black" d="M991.39,-291.7C1153.43,-285.63 1467.99,-269.9 1732.9,-233.22 1743.6,-231.74 1754.76,-229.89 1765.82,-227.87"/>
<polygon fill="black" stroke="black" points="1766.15,-231.37 1775.33,-226.08 1764.86,-224.49 1766.15,-231.37"/>
</g>
<!-- n4&#45;&gt;n16 -->
<g id="edge11" class="edge">
<title>n4&#45;&gt;n16</title>
<path fill="none" stroke="black" d="M542.9,-179.5C542.9,-171.8 542.9,-163.21 542.9,-154.94"/>
<polygon fill="black" stroke="black" points="546.4,-155.09 542.9,-145.09 539.4,-155.09 546.4,-155.09"/>
</g>
<!-- n5&#45;&gt;n15 -->
<g id="edge12" class="edge">
<title>n5&#45;&gt;n15</title>
<path fill="none" stroke="black" d="M745.24,-179.5C742.91,-171.63 740.3,-162.82 737.8,-154.37"/>
<polygon fill="black" stroke="black" points="741.23,-153.62 735.03,-145.03 734.51,-155.61 741.23,-153.62"/>
</g>
<!-- n6&#45;&gt;n12 -->
<g id="edge13" class="edge">
<title>n6&#45;&gt;n12</title>
<path fill="none" stroke="black" d="M1013.9,-179.5C1013.9,-171.8 1013.9,-163.21 1013.9,-154.94"/>
<polygon fill="black" stroke="black" points="1017.4,-155.09 1013.9,-145.09 1010.4,-155.09 1017.4,-155.09"/>
</g>
<!-- n6&#45;&gt;n13 -->
<g id="edge14" class="edge">
<title>n6&#45;&gt;n13</title>
<path fill="none" stroke="black" d="M1097.6,-182.76C1145.67,-169.78 1205.88,-153.52 1254.13,-140.5"/>
<polygon fill="black" stroke="black" points="1254.97,-143.89 1263.71,-137.91 1253.15,-137.14 1254.97,-143.89"/>
</g>
<!-- n6&#45;&gt;n14 -->
<g id="edge15" class="edge">
<title>n6&#45;&gt;n14</title>
<path fill="none" stroke="black" d="M1134.79,-187.46C1153.57,-184.74 1172.76,-182.01 1190.9,-179.48 1311.68,-162.66 1343.3,-167.24 1462.9,-143.48 1470.46,-141.98 1478.29,-140.23 1486.08,-138.35"/>
<polygon fill="black" stroke="black" points="1486.71,-141.8 1495.57,-136 1485.03,-135.01 1486.71,-141.8"/>
</g>
<!-- n6&#45;&gt;n15 -->
<g id="edge16" class="edge">
<title>n6&#45;&gt;n15</title>
<path fill="none" stroke="black" d="M937.75,-182.07C893.29,-168.48 837.68,-151.48 794.74,-138.35"/>
<polygon fill="black" stroke="black" points="795.86,-135.03 785.28,-135.46 793.82,-141.73 795.86,-135.03"/>
</g>
</g>
</svg>
