<?xml version="1.0" encoding="UTF-8" standalone="no"?>
<!DOCTYPE svg PUBLIC "-//W3C//DTD SVG 1.1//EN"
 "http://www.w3.org/Graphics/SVG/1.1/DTD/svg11.dtd">
<!-- Generated by graphviz version 7.1.0 (20230121.1956)
 -->
<!-- Title: G Pages: 1 -->
<svg width="503pt" height="151pt"
 viewBox="0.00 0.00 503.43 151.48" xmlns="http://www.w3.org/2000/svg" xmlns:xlink="http://www.w3.org/1999/xlink">
<g id="graph0" class="graph" transform="scale(1 1) rotate(0) translate(4 147.48)">
<title>G</title>
<polygon fill="white" stroke="none" points="-4,4 -4,-147.48 499.43,-147.48 499.43,4 -4,4"/>
<!-- n1 -->
<g id="node1" class="node">
<title>n1</title>
<ellipse fill="none" stroke="black" cx="65.64" cy="-116.61" rx="65.79" ry="18"/>
<text text-anchor="middle" x="65.64" y="-112.91" font-family="Times,serif" font-size="14.00">chatgpt&#45;230308</text>
</g>
<!-- n2 -->
<g id="node2" class="node">
<title>n2</title>
<ellipse fill="none" stroke="black" cx="236.64" cy="-116.61" rx="87.86" ry="26.74"/>
<text text-anchor="middle" x="236.64" y="-120.41" font-family="Times,serif" font-size="14.00">golang.org/x/crypto</text>
<text text-anchor="middle" x="236.64" y="-105.41" font-family="Times,serif" font-size="14.00">v0.5.0</text>
</g>
<!-- n3 -->
<g id="node3" class="node">
<title>n3</title>
<ellipse fill="none" stroke="black" cx="417.64" cy="-116.61" rx="74.91" ry="26.74"/>
<text text-anchor="middle" x="417.64" y="-120.41" font-family="Times,serif" font-size="14.00">golang.org/x/net</text>
<text text-anchor="middle" x="417.64" y="-105.41" font-family="Times,serif" font-size="14.00">v0.7.0</text>
</g>
<!-- n4 -->
<g id="node4" class="node">
<title>n4</title>
<ellipse fill="none" stroke="black" cx="417.64" cy="-26.87" rx="77.56" ry="26.74"/>
<text text-anchor="middle" x="417.64" y="-30.67" font-family="Times,serif" font-size="14.00">golang.org/x/text</text>
<text text-anchor="middle" x="417.64" y="-15.67" font-family="Times,serif" font-size="14.00">v0.7.0</text>
</g>
<!-- n3&#45;&gt;n4 -->
<g id="edge1" class="edge">
<title>n3&#45;&gt;n4</title>
<path fill="none" stroke="black" d="M417.64,-89.76C417.64,-82.06 417.64,-73.47 417.64,-65.2"/>
<polygon fill="black" stroke="black" points="421.14,-65.35 417.64,-55.35 414.14,-65.35 421.14,-65.35"/>
</g>
</g>
</svg>
